<?xml version="1.0" standalone="no"?><!DOCTYPE svg PUBLIC "-//W3C//DTD SVG 1.1//EN" "http://www.w3.org/Graphics/SVG/1.1/DTD/svg11.dtd"><svg t="1607239282767" class="icon" viewBox="0 0 1024 1024" version="1.1" xmlns="http://www.w3.org/2000/svg" p-id="3081" xmlns:xlink="http://www.w3.org/1999/xlink" width="200" height="200"><defs><style type="text/css"></style></defs><path d="M775.25 528.404c126.335 0 228.75 102.436 228.75 228.798S901.585 986 775.25 986 546.5 883.564 546.5 757.202s102.415-228.798 228.75-228.798zM787.894 103c62.85 0 113.92 50.451 114.935 113.073l0.015 1.901v238.761c0 16.51-13.38 29.893-29.887 29.893-16.27 0-29.504-13.004-29.878-29.187l-0.009-0.706V217.974c0-30.174-24.211-54.693-54.263-55.18l-0.913-0.008H203.95c-30.168 0-54.681 24.217-55.169 54.275l-0.007 0.913v648.453c0 30.175 24.211 54.693 54.263 55.18l0.913 0.008h302.96c16.505 0 29.886 13.383 29.886 29.893 0 16.274-13.001 29.51-29.181 29.893H203.95c-62.85 0-113.92-50.451-114.935-113.073l-0.015-1.9V217.973c0-62.863 50.44-113.943 113.049-114.959l1.9-0.015h583.945zM775.25 574.393c-100.941 0-182.77 81.846-182.77 182.809 0 100.962 81.829 182.808 182.77 182.808 100.941 0 182.77-81.846 182.77-182.808 0-100.963-81.829-182.809-182.77-182.809z m128.397 103.979c8.454 9.163 8.045 23.353-0.804 32.018l-0.5 0.475L743.711 857.28a22.917 22.917 0 0 1-16.68 6.07 22.894 22.894 0 0 1-15.218-4.728l-0.532-0.421-66.67-54.442c-9.836-8.032-11.3-22.517-3.27-32.355 7.886-9.662 21.997-11.247 31.817-3.691l0.53 0.42 52.426 42.81L871.16 677.067c9.331-8.612 23.876-8.028 32.487 1.305zM524.61 567.434c16.506 0 29.887 13.383 29.887 29.893 0 16.274-13.001 29.51-29.181 29.885l-0.706 0.008H247.63c-16.505 0-29.886-13.383-29.886-29.893 0-16.274 13.001-29.51 29.181-29.885l0.706-0.008h276.98z m153.712-233.336c16.506 0 29.887 13.383 29.887 29.893 0 16.274-13.002 29.51-29.182 29.885l-0.705 0.008H247.63c-16.506 0-29.887-13.384-29.887-29.893 0-16.274 13.001-29.51 29.181-29.885l0.706-0.008h430.69z"></path></svg>
